<svg fill="none" height="24" viewBox="0 0 24 24" width="24" xmlns="http://www.w3.org/2000/svg" xmlns:xlink="http://www.w3.org/1999/xlink"><mask id="a" height="24" maskUnits="userSpaceOnUse" width="24" x="0" y="0"><path d="m0 0h24v24h-24z" fill="#d9d9d9"/></mask><g mask="url(#a)"><path d="m18.8998 17.4998c.2.2.3.4.3.7s-.1.5-.3.7-.4.3-.7.3-.5-.1-.7-.3l-5.5-5.5-5.5 5.5c-.2.2-.4.3-.7.3s-.5-.1-.7-.3-.3-.4-.3-.7.1-.5.3-.7l5.5-5.5-5.5-5.5c-.1-.2-.2-.4-.2-.7s.1-.5.3-.7c.4-.4 1-.4 1.4 0l5.5 5.5 5.5-5.5c.2-.2.4-.3.7-.3s.5.1.7.3.3.4.3.7-.3.5-.4.7l-5.5 5.5z" fill="#342e34"/></g></svg>