<svg fill="none" height="24" viewBox="0 0 25 24" width="25" xmlns="http://www.w3.org/2000/svg" xmlns:xlink="http://www.w3.org/1999/xlink"><clipPath id="a"><path d="m.850586 0h24v24h-24z"/></clipPath><g clip-path="url(#a)" stroke="#342e34" stroke-linecap="round" stroke-linejoin="round" stroke-width="1.34"><path d="m16.2256 6.75c1.0355 0 1.875-.83947 1.875-1.875s-.8395-1.875-1.875-1.875-1.875.83947-1.875 1.875.8395 1.875 1.875 1.875z"/><path d="m1.60059 18.7501 6.85312-11.63062c.06617-.11278.16068-.2063.27415-.27129.11348-.06498.24196-.09917.37273-.09917.13076 0 .25925.03419.37272.09917.11347.06499.20798.15851.27415.27129l6.85314 11.63062z"/><path d="m5.5708 12h7.0594"/><path d="m14.5952 15.3476 3.0994-5.2303c.0664-.1119.1608-.20465.2739-.26904.1131-.0644.241-.09826.3711-.09826s.258.03386.3711.09826c.1131.06439.2075.15714.2739.26904l5.1159 8.6325h-7.5"/></g></svg>