<svg fill="none" height="24" viewBox="0 0 24 24" width="24" xmlns="http://www.w3.org/2000/svg"><g stroke="#342e34"><circle cx="12.558" cy="8.098" r="1.115" stroke-width="1.115"/><g stroke-width="1.338"><path d="m3.8368 11.2752c-.03974-.4942.15762-.9779.53175-1.30319l7.16525-6.23068c.5875-.51081 1.4614-.51081 2.0489 0l7.1652 6.23068c.3742.32529.5715.80899.5318 1.30319l-.6064 7.5409c-.0653.811-.7425 1.436-1.5562 1.436h-13.1177c-.81369 0-1.49094-.625-1.55617-1.436z"/><path d="m7.1974 20.3361v2.1462" stroke-linecap="round"/><path d="m17.5509 20.3361v2.1462" stroke-linecap="round"/><path d="m15.1641 19.6689v-4.7384c0-1.2318-.9985-2.2303-2.2303-2.2303h-.7167c-1.2318 0-2.23028.9985-2.23028 2.2303v4.7384"/></g></g></svg>