<svg fill="none" height="24" viewBox="0 0 24 24" width="24" xmlns="http://www.w3.org/2000/svg" xmlns:xlink="http://www.w3.org/1999/xlink"><clipPath id="a"><path d="m0 0h24v24h-24z"/></clipPath><g clip-path="url(#a)" stroke="#b85c28" stroke-width="1.267"><path d="m3.96937 12.9694c-.14038-.1406-.21928-.3311-.21937-.5297v-8.6897h8.6897c.1986.00009.3891.07899.5297.21937l9.3112 9.31123c.1406.1407.2195.3314.2195.5302s-.0789.3895-.2195.5301l-7.9369 7.9397c-.1406.1406-.3313.2195-.5301.2195s-.3895-.0789-.5302-.2195z" stroke-linecap="round" stroke-linejoin="round"/><path d="m8.3664 7.875c0 .27139-.22001.4914-.4914.4914s-.4914-.22001-.4914-.4914.22001-.4914.4914-.4914.4914.22001.4914.4914z"/></g></svg>