<svg fill="none" height="24" viewBox="0 0 24 24" width="24" xmlns="http://www.w3.org/2000/svg"><g stroke="#342e34" stroke-linecap="round" stroke-linejoin="round" stroke-width="1.338"><path d="m11.4431 20.8168c5.2352 0 9.4792-4.2203 9.4792-9.4265 0-5.20605-4.244-9.42643-9.4792-9.42643-5.23524 0-9.47923 4.22038-9.47923 9.42643 0 5.2062 4.24399 9.4265 9.47923 9.4265z"/><path d="m2.69482 15.0179h2.5521c.67686 0 1.326-.2674 1.80461-.7433.47861-.476.74749-1.1215.74749-1.7946v-2.1753c0-.67312.26888-1.31864.74749-1.79459s1.12775-.74333 1.80459-.74333c.6769 0 1.326-.26739 1.8046-.74333.4786-.47595.7475-1.12148.7475-1.79457v-3.1615"/><path d="m20.9193 11.2422c-.7302-.3768-1.5399-.5756-2.3625-.5801h-3.1063c-.6768 0-1.326.2674-1.8046.7433-.4786.476-.7475 1.1215-.7475 1.7946s.2689 1.3186.7475 1.7946c.4786.4759 1.1278.7433 1.8046.7433.4835 0 .9472.191 1.289.531.3419.3399.534.801.534 1.2818v1.2617"/><path d="m10.8535 20.2254c.16-.3588.1847-.7934-.0003-1.1785-.1849-.3851-.3895-.9353-.811-1.1212s-.88929-.2216-1.30045-.0994c-.41115.1222-.73199.3924-.89194.7511-.11424.2562-.34341.4492-.6371.5365-.29368.0873-.62781.0618-.92889-.071l-.79012-.3484"/></g></svg>