<svg fill="none" height="32" viewBox="0 0 145 32" width="145" xmlns="http://www.w3.org/2000/svg"><path clip-rule="evenodd" d="m5.29284 8.05285c2.43002-3.26858 6.32126-5.3862 10.70716-5.3862 4.4116 0 8.3227 2.1426 10.7497 5.44397-.1032.10624-.1973.21632-.2824.32627-.4447.57571-.7791 1.31729-1.0471 2.07031-.5397 1.5146-.9514 3.4929-1.3325 5.3455l-.0338.1666c-.3803 1.8491-.7337 3.5689-1.1611 4.8455-.192.5735-.3741.979-.5355 1.2387-.1685-.2617-.3597-.6722-.562-1.254-.4571-1.3132-.8415-3.0995-1.249-5.0069l-.0132-.0624c-.3916-1.8321-.8071-3.776-1.325-5.2639-.2602-.74746-.5795-1.48161-.9971-2.05199-.4098-.55977-1.092-1.19152-2.0898-1.19152-.9915 0-1.6768.62489-2.0926 1.17839-.4256.56667-.7575 1.29779-1.0309 2.04562-.5505 1.5059-1.0006 3.4757-1.4195 5.3308l-.0433.1917c-.4148 1.8376-.8025 3.5557-1.2427 4.8348-.168.4885-.32657.8601-.4701 1.1256-.14026-.2643-.29485-.6334-.45832-1.1178-.42228-1.2518-.7922-2.9218-1.18949-4.7154l-.06954-.3139c-.41166-1.8562-.85826-3.8296-1.41663-5.3402-.27743-.75065-.61675-1.48541-1.05587-2.05476-.09943-.12887-.21244-.25968-.33941-.38479zm-1.47072 2.50975c.11574.2285.23816.5118.36476.8543.4833 1.3075.89278 3.0917 1.31444 4.9931l.08204.3704c.38392 1.7349.78328 3.5396 1.25366 4.9338.25018.7415.55229 1.4678.94088 2.0323.36744.5339 1.02664 1.2234 2.04028 1.2234 1.01072 0 1.67152-.6862 2.04142-1.2176.3919-.5632.699-1.2887.9542-2.0307.4893-1.4218.9059-3.2688 1.3046-5.0363l.061-.2703c.4296-1.9025.8431-3.6903 1.3229-5.0026.2223-.608.4304-1.0315.6115-1.2943.1717.2605.3679.6773.5759 1.2749.4571 1.3133.8412 3.0996 1.2488 5.0069l.0134.0625c.3915 1.8321.8069 3.776 1.3249 5.2637.2602.7478.5795 1.4819.997 2.0522.41.5599 1.0921 1.1916 2.0897 1.1916 1.0029 0 1.6825-.6375 2.0876-1.2024.4112-.5731.7205-1.3097.9703-2.0562.4802-1.4339.8622-3.2945 1.2259-5.0644l.0525-.257c.3918-1.905.768-3.6843 1.2325-4.9879.1007-.2836.1998-.5254.2944-.7285.7118 1.6314 1.1066 3.4329 1.1066 5.3265 0 7.3637-5.9694 13.3335-13.3333 13.3335-7.3638 0-13.33335-5.9698-13.33335-13.3335 0-1.9366.41291-3.7769 1.15547-5.4374zm12.17788-10.5626c-8.83654 0-16 7.16346-16 16 0 8.8365 7.16346 16 16 16 8.8367 0 15.9998-7.1635 15.9998-16 0-8.83654-7.1631-16-15.9998-16zm.3029 9.89659c.0013-.00095.0019-.00153.0019-.00169 0-.00033-.0031.00148-.0093.00644.0034-.00199.0058-.0036.0074-.00475zm-.3667.00012c-.0061-.0038-.0092-.0064-.0092-.00673s.0031.00157.0092.00673zm6.2245 12.45989s.0029-.0028.0087-.0066c-.0058.005-.0087.0071-.0087.0066zm.3877-.0107c.0062.0037.0095.0062.0095.0066s-.0033-.0016-.0095-.0066zm-13.00348.0347c-.00004-.0004.0038-.0041.01148-.0095-.0076.007-.01148.0099-.01148.0095zm.54008-.007c.0076.0053.0114.0091.0114.0095s-.0039-.0021-.0114-.0095z" fill="#ff8f50" fill-rule="evenodd"/><g fill="#622f60"><path d="m40.8346 25.4722-3.88-13.272h3.3986l2.3011 9.5526 2.6756-9.5526h3.7996l2.676 9.5526 2.3279-9.5526h3.3982l-3.9065 13.272h-3.5588l-2.8366-9.9272-2.8362 9.9272z"/><path d="m62.5182 25.7932c-1.1416 0-2.0781-.1788-2.8094-.5355-.7312-.3745-1.2754-.8651-1.6322-1.4716-.3567-.6066-.5351-1.2755-.5351-2.0067 0-1.2309.4815-2.2299 1.4448-2.997.9633-.767 2.4084-1.1506 4.335-1.1506h3.3714v-.3211c0-.9097-.2589-1.5787-.7759-2.0068-.5173-.4281-1.1598-.6422-1.9266-.6422-.6957 0-1.3023.1695-1.8196.5084-.5174.3211-.8386.8027-.9633 1.4449h-3.345c.0896-.9632.4105-1.8017.9633-2.5152.5711-.7135 1.3023-1.2576 2.1942-1.6322.8923-.3925 1.8911-.5887 2.9969-.5887 1.8911 0 3.3804.4727 4.4688 1.4182 1.088.9454 1.6322 2.2833 1.6322 4.0136v8.1613h-2.9167l-.3209-2.1405c-.3926.7135-.9455 1.3019-1.659 1.766-.6958.4637-1.5967.6957-2.7029.6957zm.7763-2.676c.981 0 1.7391-.3213 2.2743-.9633.5528-.6421.9009-1.4361 1.0438-2.3814h-2.9168c-.91 0-1.5607.1695-1.9534.5084-.3923.3211-.5888.7226-.5888 1.2041 0 .5173.1965.9187.5888 1.204.3927.2853.9096.4282 1.5521.4282z"/><path d="m75.5094 25.4722-4.8698-13.272h3.5853l3.3718 10.0344 3.3713-10.0344h3.5857l-4.8967 13.272z"/><path d="m91.439 25.7932c-1.3378 0-2.5241-.2857-3.5588-.8564-1.0344-.571-1.8461-1.3737-2.4349-2.4084-.5888-1.0343-.8828-2.2297-.8828-3.5854 0-1.3736.2853-2.5955.8559-3.6659.5888-1.0703 1.3915-1.8998 2.4085-2.4884 1.0343-.6066 2.2474-.9098 3.6389-.9098 1.3023 0 2.4531.2854 3.4519.8562.9988.5709 1.7751 1.3558 2.3279 2.3547.5707.9811.8564 2.0782.8564 3.2913 0 .1962-.0091.4013-.0268.6154 0 .2141-.0091.437-.0269.6689h-10.0876c.0714 1.0346.4282 1.8464 1.0702 2.4352.6599.5884 1.4539.8828 2.3817.8828.6953 0 1.2754-.1515 1.7391-.455.4815-.3208.8382-.7313 1.0703-1.2309h3.4787c-.2498.8386-.6694 1.6058-1.2577 2.3015-.5711.6776-1.2846 1.2127-2.1409 1.6054-.8382.3923-1.7929.5888-2.8631.5888zm.0268-11.1315c-.8382 0-1.5785.2409-2.221.7225-.642.4638-1.0525 1.1773-1.2308 2.1406h6.6093c-.0537-.8741-.3745-1.5698-.9633-2.0871s-1.3201-.776-2.1942-.776z"/><path d="m99.9121 25.4728v-19.26577h3.4249v19.26577z"/><path d="m112.215 25.7932c-1.338 0-2.524-.2857-3.559-.8564-1.034-.571-1.846-1.3737-2.435-2.4084-.589-1.0343-.883-2.2297-.883-3.5854 0-1.3736.286-2.5955.856-3.6659.589-1.0703 1.392-1.8998 2.409-2.4884 1.035-.6066 2.247-.9098 3.639-.9098 1.302 0 2.453.2854 3.452.8562.998.5709 1.775 1.3558 2.328 2.3547.57.9811.856 2.0782.856 3.2913 0 .1962-.009.4013-.027.6154 0 .2141-.009.437-.027.6689h-10.087c.071 1.0346.428 1.8464 1.07 2.4352.66.5884 1.454.8828 2.381.8828.696 0 1.276-.1515 1.74-.455.481-.3208.838-.7313 1.07-1.2309h3.479c-.25.8386-.67 1.6058-1.258 2.3015-.571.6776-1.285 1.2127-2.141 1.6054-.838.3923-1.792.5888-2.863.5888zm.027-11.1315c-.838 0-1.579.2409-2.221.7225-.642.4638-1.053 1.1773-1.231 2.1406h6.609c-.054-.8741-.374-1.5698-.963-2.0871s-1.32-.776-2.194-.776z"/><path d="m126.173 25.7932c-1.177 0-2.212-.1874-3.103-.562-.893-.3926-1.606-.9277-2.141-1.6057-.535-.6776-.856-1.4625-.964-2.3544h3.452c.107.5169.393.9633.857 1.3378.481.3567 1.097.5351 1.846.5351s1.293-.1515 1.632-.455c.357-.3031.535-.6511.535-1.0434 0-.571-.249-.9546-.749-1.1506-.5-.2141-1.195-.4193-2.087-.6155-.571-.1249-1.151-.2765-1.739-.4549-.589-.1783-1.133-.4014-1.633-.6689-.481-.2855-.874-.6422-1.177-1.0703-.303-.446-.455-.9901-.455-1.6323 0-1.1773.464-2.1674 1.392-2.9701.945-.8028 2.265-1.2041 3.96-1.2041 1.57 0 2.818.3657 3.746 1.097.945.7315 1.507 1.7393 1.686 3.0237h-3.238c-.197-.9811-.937-1.4717-2.221-1.4717-.642 0-1.142.1249-1.498.3747-.339.2497-.509.5618-.509.9365 0 .3924.259.7046.776.9365s1.204.4459 2.061.6422c.927.214 1.774.4549 2.541.7225.785.2497 1.41.6332 1.874 1.1505.463.4995.695 1.222.695 2.1673.018.8209-.196 1.5608-.642 2.221-.446.6599-1.088 1.1772-1.927 1.5521-.838.3746-1.828.562-2.97.562z"/><path d="m139.161 25.7932c-1.177 0-2.212-.1874-3.104-.562-.891-.3926-1.605-.9277-2.14-1.6057-.535-.6776-.856-1.4625-.963-2.3544h3.451c.107.5169.393.9633.856 1.3378.482.3567 1.098.5351 1.847.5351s1.293-.1515 1.632-.455c.357-.3031.535-.6511.535-1.0434 0-.571-.25-.9546-.749-1.1506-.499-.2141-1.195-.4193-2.087-.6155-.571-.1249-1.151-.2765-1.74-.4549-.588-.1783-1.132-.4014-1.632-.6689-.481-.2855-.874-.6422-1.177-1.0703-.303-.446-.455-.9901-.455-1.6323 0-1.1773.464-2.1674 1.392-2.9701.945-.8028 2.265-1.2041 3.96-1.2041 1.57 0 2.818.3657 3.746 1.097.945.7315 1.507 1.7393 1.685 3.0237h-3.237c-.196-.9811-.937-1.4717-2.221-1.4717-.642 0-1.142.1249-1.499.3747-.339.2497-.508.5618-.508.9365 0 .3924.259.7046.776.9365s1.204.4459 2.06.6422c.928.214 1.775.4549 2.543.7225.785.2497 1.409.6332 1.873 1.1505.463.4995.695 1.222.695 2.1673.018.8209-.196 1.5608-.642 2.221-.446.6599-1.088 1.1772-1.926 1.5521-.839.3746-1.829.562-2.971.562z"/></g></svg>